<mxfile host="drawio-plugin" modified="2024-06-11T01:34:58.191Z" agent="Mozilla/5.0 (Macintosh; Intel Mac OS X 10_15_7) AppleWebKit/537.36 (KHTML, like Gecko) Chrome/122.0.0.0 Safari/537.36" etag="cOF_t244jVEIE2v75WBe" version="22.1.22" type="embed">
  <diagram id="23iRSUPoRavnBvh4doch" name="Page-1">
    <mxGraphModel dx="1043" dy="703" grid="1" gridSize="10" guides="1" tooltips="1" connect="1" arrows="1" fold="1" page="1" pageScale="1" pageWidth="827" pageHeight="1169" math="0" shadow="0">
      <root>
        <mxCell id="0" />
        <mxCell id="1" parent="0" />
        <mxCell id="2" value="Usuario Admin (Server)" style="shape=umlFrame;whiteSpace=wrap;html=1;pointerEvents=0;recursiveResize=0;container=1;collapsible=0;width=160;rounded=0;" vertex="1" parent="1">
          <mxGeometry x="240" y="40" width="340" height="410" as="geometry" />
        </mxCell>
        <mxCell id="6" value="Registrar Usuario&amp;nbsp;&lt;br&gt;Tenant" style="ellipse;whiteSpace=wrap;html=1;rounded=0;" vertex="1" parent="2">
          <mxGeometry x="104" y="170" width="140" height="70" as="geometry" />
        </mxCell>
        <mxCell id="3" value="ActorName" style="shape=umlActor;html=1;verticalLabelPosition=bottom;verticalAlign=top;align=center;rounded=0;" vertex="1" parent="1">
          <mxGeometry x="140" y="215" width="30" height="60" as="geometry" />
        </mxCell>
        <mxCell id="7" value="" style="edgeStyle=none;html=1;endArrow=none;verticalAlign=bottom;rounded=0;entryX=0;entryY=0.5;entryDx=0;entryDy=0;" edge="1" parent="1" target="6">
          <mxGeometry width="160" relative="1" as="geometry">
            <mxPoint x="180" y="250" as="sourcePoint" />
            <mxPoint x="490" y="360" as="targetPoint" />
          </mxGeometry>
        </mxCell>
      </root>
    </mxGraphModel>
  </diagram>
</mxfile>
